Coordinates
version=1
nRows=13
nColumns=18
inDegrees=yes

Units are S.I. units (second, meters, Newtons, ...)
If the header above contains a line with 'inDegrees', this indicates whether rotational values are in degrees (yes) or radians (no).

endheader
time	ground_thorax_rot_x	ground_thorax_rot_y	ground_thorax_rot_z	ground_thorax_tx	ground_thorax_ty	ground_thorax_tz	clav_prot	clav_elev	scapula_abduction	scapula_elevation	scapula_upward_rot	scapula_winging	plane_elv	shoulder_elv	axial_rot	elbow_flexion	pro_sup
      6.34000000	      2.86951830	     -2.25914636	     -6.64404740	     -0.00684034	      0.00708180	      0.00218841	    -35.27595242	      2.05716281	    -30.67750447	     -2.16983852	     21.04312506	     -0.68150896	    -19.84923031	      6.61716129	     24.58731046	      0.00000000	     34.32000000
      6.35000000	      2.88715220	     -2.28673760	     -6.67570983	     -0.00682355	      0.00702163	      0.00230231	    -35.26071789	      2.08123469	    -30.68665420	     -2.14229807	     21.00649353	     -0.67207617	    -19.85316577	      6.61904814	     24.59220398	      0.00000000	     34.32000000
      6.36000000	      2.88737268	     -2.28735327	     -6.67650715	     -0.00690629	      0.00703308	      0.00231909	    -35.26052716	      2.08167157	    -30.68682802	     -2.14185063	     21.00602207	     -0.67198885	    -19.85326790	      6.61929085	     24.59226829	      0.00000000	     34.32000000
      6.37000000	      2.90185307	     -2.30706282	     -6.71521257	     -0.00687712	      0.00705477	      0.00239139	    -35.23494370	      2.11442787	    -30.68524427	     -2.10624905	     20.96596281	     -0.65989436	    -19.85740967	      6.61712898	     24.59613909	      0.00000000	     34.32000000
      6.38000000	      2.90100007	     -2.30781135	     -6.71633164	     -0.00694719	      0.00718311	      0.00232596	    -35.23467105	      2.11538043	    -30.68528911	     -2.10548460	     20.96578829	     -0.65998283	    -19.85738775	      6.61723648	     24.59620061	      0.00000000	     34.32000000
      6.39000000	      2.82907101	     -2.29511636	     -6.73536235	     -0.00699672	      0.00704894	      0.00217729	    -35.16240591	      2.17681691	    -30.61422854	     -2.04737588	     20.93632836	     -0.64030450	    -19.83686942	      6.58774705	     24.60567424	      0.00000000	     34.32000000
      6.40000000	      2.80765371	     -2.26372047	     -6.70390777	     -0.00705967	      0.00703290	      0.00214014	    -35.12763455	      2.17478521	    -30.54994500	     -2.04912705	     20.94982367	     -0.63036235	    -19.81713985	      6.58635980	     24.61346646	      0.00000000	     34.32000000
      6.41000000	      2.78171538	     -2.22533536	     -6.69314221	     -0.00699517	      0.00694529	      0.00213807	    -35.10459847	      2.17148539	    -30.49122158	     -2.05722473	     20.98218267	     -0.62961557	    -19.79954274	      6.61224052	     24.62314855	      0.00000000	     34.32000000
      6.42000000	      2.76621077	     -2.17598705	     -6.69019377	     -0.00698856	      0.00695271	      0.00203859	    -35.05742119	      2.16333256	    -30.38183113	     -2.07072838	     21.03101267	     -0.62308037	    -19.76658787	      6.66387492	     24.64616902	      0.00000000	     34.32000000
      6.43000000	      2.72096086	     -2.16490514	     -6.68373923	     -0.00695797	      0.00698789	      0.00194561	    -35.05077731	      2.16676616	    -30.34811234	     -2.07640740	     21.06835554	     -0.63151125	    -19.75268905	      6.68317251	     24.65393668	      0.00000000	     34.32000000
      6.44000000	      2.68720415	     -2.16362787	     -6.67589221	     -0.00701380	      0.00702640	      0.00183686	    -35.03882506	      2.16865697	    -30.31224630	     -2.08034670	     21.09535581	     -0.63479448	    -19.73623041	      6.69194367	     24.66343816	      0.00000000	     34.32000000
      6.45000000	      2.68741331	     -2.16427371	     -6.67598732	     -0.00707863	      0.00700211	      0.00183003	    -35.03862988	      2.16859395	    -30.31193346	     -2.08036999	     21.09532776	     -0.63469841	    -19.73602544	      6.69215785	     24.66362111	      0.00000000	     34.32000000
      6.46000000	      2.68801150	     -2.16505210	     -6.67587130	     -0.00715139	      0.00692059	      0.00183857	    -35.03848186	      2.16828569	    -30.31163084	     -2.08056749	     21.09525701	     -0.63454680	    -19.73581173	      6.69263897	     24.66384301	      0.00000000	     34.32000000
